<?xml version="1.0" encoding="UTF-8" standalone="no"?>
<!DOCTYPE svg PUBLIC "-//W3C//DTD SVG 1.1//EN"
 "http://www.w3.org/Graphics/SVG/1.1/DTD/svg11.dtd">
<!-- Generated by graphviz version 2.40.1 (20161225.0304)
 -->
<!-- Title: idigbio Pages: 1 -->
<svg width="767pt" height="502pt"
 viewBox="0.00 0.00 767.39 502.00" xmlns="http://www.w3.org/2000/svg" xmlns:xlink="http://www.w3.org/1999/xlink">
<g id="graph0" class="graph" transform="scale(1 1) rotate(0) translate(4 498)">
<title>idigbio</title>
<polygon fill="#ffffff" stroke="transparent" points="-4,4 -4,-498 763.3887,-498 763.3887,4 -4,4"/>
<text text-anchor="middle" x="379.6943" y="-7.8" font-family="Times,serif" font-size="14.00" fill="#000000">Content&#45;based iDigBio</text>
<!-- Preston -->
<g id="node1" class="node">
<title>Preston</title>
<ellipse fill="none" stroke="#000000" cx="293.895" cy="-476" rx="37.0935" ry="18"/>
<text text-anchor="middle" x="293.895" y="-472.3" font-family="Times,serif" font-size="14.00" fill="#000000">Preston</text>
</g>
<!-- iDigBio API -->
<g id="node2" class="node">
<title>iDigBio API</title>
<ellipse fill="none" stroke="#000000" cx="55.895" cy="-389" rx="55.7903" ry="18"/>
<text text-anchor="middle" x="55.895" y="-385.3" font-family="Times,serif" font-size="14.00" fill="#000000">iDigBio API</text>
</g>
<!-- Preston&#45;&gt;iDigBio API -->
<g id="edge1" class="edge">
<title>Preston&#45;&gt;iDigBio API</title>
<path fill="none" stroke="#000000" d="M264.2334,-465.1573C223.6642,-450.3274 150.4492,-423.5639 102.5098,-406.0398"/>
<polygon fill="#000000" stroke="#000000" points="103.5743,-402.7025 92.9805,-402.5564 101.171,-409.277 103.5743,-402.7025"/>
<text text-anchor="middle" x="205.395" y="-428.8" font-family="Times,serif" font-size="14.00" fill="#000000">query</text>
</g>
<!-- Collections -->
<g id="node3" class="node">
<title>Collections</title>
<ellipse fill="none" stroke="#000000" cx="180.895" cy="-389" rx="50.8918" ry="18"/>
<text text-anchor="middle" x="180.895" y="-385.3" font-family="Times,serif" font-size="14.00" fill="#000000">Collections</text>
</g>
<!-- Preston&#45;&gt;Collections -->
<g id="edge2" class="edge">
<title>Preston&#45;&gt;Collections</title>
<path fill="none" stroke="#000000" d="M273.953,-460.6464C256.3232,-447.073 230.3713,-427.0923 210.3495,-411.6773"/>
<polygon fill="#000000" stroke="#000000" points="212.2322,-408.7097 202.1733,-405.3824 207.9618,-414.2562 212.2322,-408.7097"/>
<text text-anchor="middle" x="262.395" y="-428.8" font-family="Times,serif" font-size="14.00" fill="#000000">access</text>
</g>
<!-- Biodiversity Data Archive -->
<g id="node4" class="node">
<title>Biodiversity Data Archive</title>
<ellipse fill="none" stroke="#000000" cx="353.895" cy="-389" rx="103.9815" ry="18"/>
<text text-anchor="middle" x="353.895" y="-385.3" font-family="Times,serif" font-size="14.00" fill="#000000">Biodiversity Data Archive</text>
</g>
<!-- Preston&#45;&gt;Biodiversity Data Archive -->
<g id="edge3" class="edge">
<title>Preston&#45;&gt;Biodiversity Data Archive</title>
<path fill="none" stroke="#000000" d="M290.1614,-457.8725C289.0002,-447.58 289.2502,-434.83 294.895,-425 297.7334,-420.0573 301.5496,-415.7095 305.8832,-411.9058"/>
<polygon fill="#000000" stroke="#000000" points="308.2939,-414.4701 314.1429,-405.6361 304.0615,-408.8945 308.2939,-414.4701"/>
<text text-anchor="middle" x="313.395" y="-428.8" font-family="Times,serif" font-size="14.00" fill="#000000">update</text>
</g>
<!-- Jekyll site -->
<g id="node5" class="node">
<title>Jekyll site</title>
<ellipse fill="none" stroke="#000000" cx="423.895" cy="-302" rx="46.2923" ry="18"/>
<text text-anchor="middle" x="423.895" y="-298.3" font-family="Times,serif" font-size="14.00" fill="#000000">Jekyll site</text>
</g>
<!-- Preston&#45;&gt;Jekyll site -->
<g id="edge5" class="edge">
<title>Preston&#45;&gt;Jekyll site</title>
<path fill="none" stroke="#000000" d="M330.7313,-473.0374C371.8231,-467.5381 436.5079,-451.8346 466.895,-407 483.9233,-381.8757 464.8775,-348.9587 447.0129,-326.7305"/>
<polygon fill="#000000" stroke="#000000" points="449.6718,-324.4543 440.5536,-319.059 444.3171,-328.9629 449.6718,-324.4543"/>
<text text-anchor="middle" x="496.895" y="-385.3" font-family="Times,serif" font-size="14.00" fill="#000000">generate</text>
</g>
<!-- Biodiversity Data Archive&#45;&gt;Preston -->
<g id="edge4" class="edge">
<title>Biodiversity Data Archive&#45;&gt;Preston</title>
<path fill="none" stroke="#000000" d="M348.0206,-407.3925C344.2919,-417.5299 338.8537,-430.0402 331.895,-440 328.642,-444.656 324.7124,-449.1843 320.6305,-453.3697"/>
<polygon fill="#000000" stroke="#000000" points="318.0123,-451.0318 313.2317,-460.4868 322.8651,-456.0767 318.0123,-451.0318"/>
<text text-anchor="middle" x="355.895" y="-428.8" font-family="Times,serif" font-size="14.00" fill="#000000">clone</text>
</g>
<!-- Biodiversity Data Archive&#45;&gt;Jekyll site -->
<g id="edge6" class="edge">
<title>Biodiversity Data Archive&#45;&gt;Jekyll site</title>
<path fill="none" stroke="#000000" d="M368.3991,-370.9735C378.5757,-358.3254 392.3218,-341.2411 403.5869,-327.2401"/>
<polygon fill="#000000" stroke="#000000" points="406.3454,-329.395 409.8872,-319.4097 400.8915,-325.0068 406.3454,-329.395"/>
<text text-anchor="middle" x="413.895" y="-341.8" font-family="Times,serif" font-size="14.00" fill="#000000">include</text>
</g>
<!-- Static Website -->
<g id="node6" class="node">
<title>Static Website</title>
<ellipse fill="none" stroke="#000000" cx="423.895" cy="-215" rx="62.2891" ry="18"/>
<text text-anchor="middle" x="423.895" y="-211.3" font-family="Times,serif" font-size="14.00" fill="#000000">Static Website</text>
</g>
<!-- Jekyll site&#45;&gt;Static Website -->
<g id="edge7" class="edge">
<title>Jekyll site&#45;&gt;Static Website</title>
<path fill="none" stroke="#000000" d="M423.895,-283.9735C423.895,-272.1918 423.895,-256.5607 423.895,-243.1581"/>
<polygon fill="#000000" stroke="#000000" points="427.3951,-243.0033 423.895,-233.0034 420.3951,-243.0034 427.3951,-243.0033"/>
<text text-anchor="middle" x="437.895" y="-254.8" font-family="Times,serif" font-size="14.00" fill="#000000">build</text>
</g>
<!-- Webserver -->
<g id="node7" class="node">
<title>Webserver</title>
<ellipse fill="none" stroke="#000000" cx="213.895" cy="-128" rx="49.2915" ry="18"/>
<text text-anchor="middle" x="213.895" y="-124.3" font-family="Times,serif" font-size="14.00" fill="#000000">Webserver</text>
</g>
<!-- Static Website&#45;&gt;Webserver -->
<g id="edge8" class="edge">
<title>Static Website&#45;&gt;Webserver</title>
<path fill="none" stroke="#000000" d="M387.7948,-200.0442C351.2542,-184.906 294.782,-161.5103 256.1717,-145.5146"/>
<polygon fill="#000000" stroke="#000000" points="257.3416,-142.2109 246.7634,-141.6169 254.6624,-148.6779 257.3416,-142.2109"/>
<text text-anchor="middle" x="343.395" y="-167.8" font-family="Times,serif" font-size="14.00" fill="#000000">host</text>
</g>
<!-- Laptop -->
<g id="node8" class="node">
<title>Laptop</title>
<ellipse fill="none" stroke="#000000" cx="316.895" cy="-128" rx="35.9954" ry="18"/>
<text text-anchor="middle" x="316.895" y="-124.3" font-family="Times,serif" font-size="14.00" fill="#000000">Laptop</text>
</g>
<!-- Static Website&#45;&gt;Laptop -->
<g id="edge9" class="edge">
<title>Static Website&#45;&gt;Laptop</title>
<path fill="none" stroke="#000000" d="M403.0104,-198.019C386.1333,-184.2965 362.2538,-164.8805 343.9202,-149.9738"/>
<polygon fill="#000000" stroke="#000000" points="345.899,-147.0717 335.932,-143.4786 341.4829,-152.503 345.899,-147.0717"/>
<text text-anchor="middle" x="388.395" y="-167.8" font-family="Times,serif" font-size="14.00" fill="#000000">host</text>
</g>
<!-- Archive.org -->
<g id="node9" class="node">
<title>Archive.org</title>
<ellipse fill="none" stroke="#000000" cx="423.895" cy="-128" rx="53.0913" ry="18"/>
<text text-anchor="middle" x="423.895" y="-124.3" font-family="Times,serif" font-size="14.00" fill="#000000">Archive.org</text>
</g>
<!-- Static Website&#45;&gt;Archive.org -->
<g id="edge10" class="edge">
<title>Static Website&#45;&gt;Archive.org</title>
<path fill="none" stroke="#000000" d="M423.895,-196.9735C423.895,-185.1918 423.895,-169.5607 423.895,-156.1581"/>
<polygon fill="#000000" stroke="#000000" points="427.3951,-156.0033 423.895,-146.0034 420.3951,-156.0034 427.3951,-156.0033"/>
<text text-anchor="middle" x="443.895" y="-167.8" font-family="Times,serif" font-size="14.00" fill="#000000">archive</text>
</g>
<!-- Zenodo.org -->
<g id="node10" class="node">
<title>Zenodo.org</title>
<ellipse fill="none" stroke="#000000" cx="546.895" cy="-128" rx="51.9908" ry="18"/>
<text text-anchor="middle" x="546.895" y="-124.3" font-family="Times,serif" font-size="14.00" fill="#000000">Zenodo.org</text>
</g>
<!-- Static Website&#45;&gt;Zenodo.org -->
<g id="edge11" class="edge">
<title>Static Website&#45;&gt;Zenodo.org</title>
<path fill="none" stroke="#000000" d="M447.6107,-198.2255C466.8764,-184.5985 494.219,-165.2586 515.3339,-150.3237"/>
<polygon fill="#000000" stroke="#000000" points="517.5263,-153.0601 523.6693,-144.4279 513.484,-147.3452 517.5263,-153.0601"/>
<text text-anchor="middle" x="512.895" y="-167.8" font-family="Times,serif" font-size="14.00" fill="#000000">publish</text>
</g>
<!-- external harddisk -->
<g id="node11" class="node">
<title>external harddisk</title>
<ellipse fill="none" stroke="#000000" cx="687.895" cy="-128" rx="71.4873" ry="18"/>
<text text-anchor="middle" x="687.895" y="-124.3" font-family="Times,serif" font-size="14.00" fill="#000000">external harddisk</text>
</g>
<!-- Static Website&#45;&gt;external harddisk -->
<g id="edge12" class="edge">
<title>Static Website&#45;&gt;external harddisk</title>
<path fill="none" stroke="#000000" d="M466.3423,-201.6681C487.5609,-194.9552 513.6148,-186.6392 536.895,-179 569.8459,-168.1875 606.7255,-155.7381 635.789,-145.8462"/>
<polygon fill="#000000" stroke="#000000" points="636.992,-149.134 645.3287,-142.5957 634.7342,-142.5081 636.992,-149.134"/>
<text text-anchor="middle" x="598.895" y="-167.8" font-family="Times,serif" font-size="14.00" fill="#000000">backup</text>
</g>
<!-- R -->
<g id="node12" class="node">
<title>R</title>
<ellipse fill="none" stroke="#000000" cx="144.895" cy="-41" rx="27" ry="18"/>
<text text-anchor="middle" x="144.895" y="-37.3" font-family="Times,serif" font-size="14.00" fill="#000000">R</text>
</g>
<!-- Webserver&#45;&gt;R -->
<g id="edge13" class="edge">
<title>Webserver&#45;&gt;R</title>
<path fill="none" stroke="#000000" d="M175.645,-116.3586C164.0946,-110.8753 152.6869,-103.0344 145.895,-92 141.81,-85.3633 140.4153,-77.2629 140.344,-69.4894"/>
<polygon fill="#000000" stroke="#000000" points="143.8523,-69.4462 140.9387,-59.2599 136.8641,-69.0399 143.8523,-69.4462"/>
<text text-anchor="middle" x="203.895" y="-80.8" font-family="Times,serif" font-size="14.00" fill="#000000">programmatic access</text>
</g>
<!-- Jypiter notebook -->
<g id="node13" class="node">
<title>Jypiter notebook</title>
<ellipse fill="none" stroke="#000000" cx="283.895" cy="-41" rx="69.5877" ry="18"/>
<text text-anchor="middle" x="283.895" y="-37.3" font-family="Times,serif" font-size="14.00" fill="#000000">Jypiter notebook</text>
</g>
<!-- Webserver&#45;&gt;Jypiter notebook -->
<g id="edge14" class="edge">
<title>Webserver&#45;&gt;Jypiter notebook</title>
<path fill="none" stroke="#000000" d="M239.4554,-112.5958C247.4094,-106.8814 255.7066,-99.8551 261.895,-92 267.3254,-85.1072 271.675,-76.6704 275.026,-68.6584"/>
<polygon fill="#000000" stroke="#000000" points="278.3292,-69.8192 278.6238,-59.2284 271.789,-67.3239 278.3292,-69.8192"/>
<text text-anchor="middle" x="328.895" y="-80.8" font-family="Times,serif" font-size="14.00" fill="#000000">programmatic access</text>
</g>
</g>
</svg>
