<?xml version="1.0" encoding="UTF-8" standalone="no"?>
<!DOCTYPE svg PUBLIC "-//W3C//DTD SVG 1.1//EN"
 "http://www.w3.org/Graphics/SVG/1.1/DTD/svg11.dtd">
<!-- Generated by graphviz version 2.40.1 (20161225.0304)
 -->
<!-- Title: idigbio Pages: 1 -->
<svg width="790pt" height="520pt"
 viewBox="0.00 0.00 789.67 519.74" xmlns="http://www.w3.org/2000/svg" xmlns:xlink="http://www.w3.org/1999/xlink">
<g id="graph0" class="graph" transform="scale(1 1) rotate(0) translate(4 515.7401)">
<title>idigbio</title>
<polygon fill="#ffffff" stroke="transparent" points="-4,4 -4,-515.7401 785.6688,-515.7401 785.6688,4 -4,4"/>
<text text-anchor="middle" x="390.8344" y="-7.8" font-family="Times,serif" font-size="14.00" fill="#000000">Independent Content&#45;based Biodiversity Archives</text>
<!-- Preston -->
<g id="node1" class="node">
<title>Preston</title>
<ellipse fill="none" stroke="#000000" cx="316.1751" cy="-493.7401" rx="37.0935" ry="18"/>
<text text-anchor="middle" x="316.1751" y="-490.0401" font-family="Times,serif" font-size="14.00" fill="#000000">Preston</text>
</g>
<!-- GBIF/iDigBio\nSearch API -->
<g id="node2" class="node">
<title>GBIF/iDigBio\nSearch API</title>
<ellipse fill="none" stroke="#000000" cx="67.1751" cy="-397.8701" rx="67.3507" ry="26.7407"/>
<text text-anchor="middle" x="67.1751" y="-401.6701" font-family="Times,serif" font-size="14.00" fill="#000000">GBIF/iDigBio</text>
<text text-anchor="middle" x="67.1751" y="-386.6701" font-family="Times,serif" font-size="14.00" fill="#000000">Search API</text>
</g>
<!-- Preston&#45;&gt;GBIF/iDigBio\nSearch API -->
<g id="edge1" class="edge">
<title>Preston&#45;&gt;GBIF/iDigBio\nSearch API</title>
<path fill="none" stroke="#000000" d="M286.9511,-482.5726C268.3925,-475.4746 243.8681,-466.0836 222.1751,-457.7401 190.1234,-445.4124 154.3639,-431.6037 125.2758,-420.3571"/>
<polygon fill="#000000" stroke="#000000" points="126.2712,-416.9895 115.6819,-416.6471 123.7464,-423.5183 126.2712,-416.9895"/>
<text text-anchor="middle" x="237.6751" y="-446.5401" font-family="Times,serif" font-size="14.00" fill="#000000">query</text>
</g>
<!-- Collections -->
<g id="node3" class="node">
<title>Collections</title>
<ellipse fill="none" stroke="#000000" cx="203.1751" cy="-397.8701" rx="50.8918" ry="18"/>
<text text-anchor="middle" x="203.1751" y="-394.1701" font-family="Times,serif" font-size="14.00" fill="#000000">Collections</text>
</g>
<!-- Preston&#45;&gt;Collections -->
<g id="edge2" class="edge">
<title>Preston&#45;&gt;Collections</title>
<path fill="none" stroke="#000000" d="M297.5155,-477.9091C279.364,-462.5093 251.5691,-438.9278 230.8442,-421.3447"/>
<polygon fill="#000000" stroke="#000000" points="232.8935,-418.4934 223.0037,-414.6928 228.3648,-423.8311 232.8935,-418.4934"/>
<text text-anchor="middle" x="290.6751" y="-446.5401" font-family="Times,serif" font-size="14.00" fill="#000000">access</text>
</g>
<!-- Biodiversity Data Archive -->
<g id="node4" class="node">
<title>Biodiversity Data Archive</title>
<ellipse fill="none" stroke="#000000" cx="376.1751" cy="-397.8701" rx="103.9815" ry="18"/>
<text text-anchor="middle" x="376.1751" y="-394.1701" font-family="Times,serif" font-size="14.00" fill="#000000">Biodiversity Data Archive</text>
</g>
<!-- Preston&#45;&gt;Biodiversity Data Archive -->
<g id="edge3" class="edge">
<title>Preston&#45;&gt;Biodiversity Data Archive</title>
<path fill="none" stroke="#000000" d="M312.7766,-475.3384C311.7994,-465.1982 312.1206,-452.6881 317.1751,-442.7401 321.4132,-434.3991 328.0026,-427.1768 335.2661,-421.1105"/>
<polygon fill="#000000" stroke="#000000" points="337.4865,-423.8191 343.3329,-414.9833 333.2525,-418.2447 337.4865,-423.8191"/>
<text text-anchor="middle" x="335.6751" y="-446.5401" font-family="Times,serif" font-size="14.00" fill="#000000">update</text>
</g>
<!-- Jekyll site -->
<g id="node5" class="node">
<title>Jekyll site</title>
<ellipse fill="none" stroke="#000000" cx="446.1751" cy="-302" rx="46.2923" ry="18"/>
<text text-anchor="middle" x="446.1751" y="-298.3" font-family="Times,serif" font-size="14.00" fill="#000000">Jekyll site</text>
</g>
<!-- Preston&#45;&gt;Jekyll site -->
<g id="edge5" class="edge">
<title>Preston&#45;&gt;Jekyll site</title>
<path fill="none" stroke="#000000" d="M353.0114,-490.7776C394.1032,-485.2783 458.788,-469.5747 489.1751,-424.7401 509.7502,-394.3826 486.9079,-353.1386 467.4592,-327.0423"/>
<polygon fill="#000000" stroke="#000000" points="470.2189,-324.8895 461.3232,-319.1347 464.6886,-329.1809 470.2189,-324.8895"/>
<text text-anchor="middle" x="521.1751" y="-394.1701" font-family="Times,serif" font-size="14.00" fill="#000000">generate</text>
</g>
<!-- Biodiversity Data Archive&#45;&gt;Preston -->
<g id="edge4" class="edge">
<title>Biodiversity Data Archive&#45;&gt;Preston</title>
<path fill="none" stroke="#000000" d="M371.8939,-415.8999C368.3984,-428.3385 362.6399,-444.8843 354.1751,-457.7401 351.0516,-462.4839 347.1883,-467.0572 343.1326,-471.2604"/>
<polygon fill="#000000" stroke="#000000" points="340.5136,-468.9237 335.7427,-478.3836 345.3715,-473.9636 340.5136,-468.9237"/>
<text text-anchor="middle" x="377.1751" y="-446.5401" font-family="Times,serif" font-size="14.00" fill="#000000">clone</text>
</g>
<!-- Biodiversity Data Archive&#45;&gt;Jekyll site -->
<g id="edge6" class="edge">
<title>Biodiversity Data Archive&#45;&gt;Jekyll site</title>
<path fill="none" stroke="#000000" d="M389.3416,-379.8376C400.0663,-365.1494 415.3447,-344.2245 427.3599,-327.7688"/>
<polygon fill="#000000" stroke="#000000" points="430.234,-329.7679 433.3042,-319.6277 424.5805,-325.64 430.234,-329.7679"/>
<text text-anchor="middle" x="440.1751" y="-341.8" font-family="Times,serif" font-size="14.00" fill="#000000">include</text>
</g>
<!-- Static Website -->
<g id="node6" class="node">
<title>Static Website</title>
<ellipse fill="none" stroke="#000000" cx="446.1751" cy="-215" rx="62.2891" ry="18"/>
<text text-anchor="middle" x="446.1751" y="-211.3" font-family="Times,serif" font-size="14.00" fill="#000000">Static Website</text>
</g>
<!-- Jekyll site&#45;&gt;Static Website -->
<g id="edge7" class="edge">
<title>Jekyll site&#45;&gt;Static Website</title>
<path fill="none" stroke="#000000" d="M446.1751,-283.9735C446.1751,-272.1918 446.1751,-256.5607 446.1751,-243.1581"/>
<polygon fill="#000000" stroke="#000000" points="449.6752,-243.0033 446.1751,-233.0034 442.6752,-243.0034 449.6752,-243.0033"/>
<text text-anchor="middle" x="460.1751" y="-254.8" font-family="Times,serif" font-size="14.00" fill="#000000">build</text>
</g>
<!-- Webserver -->
<g id="node7" class="node">
<title>Webserver</title>
<ellipse fill="none" stroke="#000000" cx="236.1751" cy="-128" rx="49.2915" ry="18"/>
<text text-anchor="middle" x="236.1751" y="-124.3" font-family="Times,serif" font-size="14.00" fill="#000000">Webserver</text>
</g>
<!-- Static Website&#45;&gt;Webserver -->
<g id="edge8" class="edge">
<title>Static Website&#45;&gt;Webserver</title>
<path fill="none" stroke="#000000" d="M410.0749,-200.0442C373.5343,-184.906 317.0621,-161.5103 278.4519,-145.5146"/>
<polygon fill="#000000" stroke="#000000" points="279.6217,-142.2109 269.0435,-141.6169 276.9425,-148.6779 279.6217,-142.2109"/>
<text text-anchor="middle" x="365.6751" y="-167.8" font-family="Times,serif" font-size="14.00" fill="#000000">host</text>
</g>
<!-- Laptop -->
<g id="node8" class="node">
<title>Laptop</title>
<ellipse fill="none" stroke="#000000" cx="339.1751" cy="-128" rx="35.9954" ry="18"/>
<text text-anchor="middle" x="339.1751" y="-124.3" font-family="Times,serif" font-size="14.00" fill="#000000">Laptop</text>
</g>
<!-- Static Website&#45;&gt;Laptop -->
<g id="edge9" class="edge">
<title>Static Website&#45;&gt;Laptop</title>
<path fill="none" stroke="#000000" d="M425.2905,-198.019C408.4134,-184.2965 384.5339,-164.8805 366.2003,-149.9738"/>
<polygon fill="#000000" stroke="#000000" points="368.1791,-147.0717 358.2121,-143.4786 363.763,-152.503 368.1791,-147.0717"/>
<text text-anchor="middle" x="410.6751" y="-167.8" font-family="Times,serif" font-size="14.00" fill="#000000">host</text>
</g>
<!-- Archive.org -->
<g id="node9" class="node">
<title>Archive.org</title>
<ellipse fill="none" stroke="#000000" cx="446.1751" cy="-128" rx="53.0913" ry="18"/>
<text text-anchor="middle" x="446.1751" y="-124.3" font-family="Times,serif" font-size="14.00" fill="#000000">Archive.org</text>
</g>
<!-- Static Website&#45;&gt;Archive.org -->
<g id="edge10" class="edge">
<title>Static Website&#45;&gt;Archive.org</title>
<path fill="none" stroke="#000000" d="M446.1751,-196.9735C446.1751,-185.1918 446.1751,-169.5607 446.1751,-156.1581"/>
<polygon fill="#000000" stroke="#000000" points="449.6752,-156.0033 446.1751,-146.0034 442.6752,-156.0034 449.6752,-156.0033"/>
<text text-anchor="middle" x="466.1751" y="-167.8" font-family="Times,serif" font-size="14.00" fill="#000000">archive</text>
</g>
<!-- Zenodo.org -->
<g id="node10" class="node">
<title>Zenodo.org</title>
<ellipse fill="none" stroke="#000000" cx="569.1751" cy="-128" rx="51.9908" ry="18"/>
<text text-anchor="middle" x="569.1751" y="-124.3" font-family="Times,serif" font-size="14.00" fill="#000000">Zenodo.org</text>
</g>
<!-- Static Website&#45;&gt;Zenodo.org -->
<g id="edge11" class="edge">
<title>Static Website&#45;&gt;Zenodo.org</title>
<path fill="none" stroke="#000000" d="M469.8908,-198.2255C489.1565,-184.5985 516.4991,-165.2586 537.614,-150.3237"/>
<polygon fill="#000000" stroke="#000000" points="539.8064,-153.0601 545.9494,-144.4279 535.7641,-147.3452 539.8064,-153.0601"/>
<text text-anchor="middle" x="535.1751" y="-167.8" font-family="Times,serif" font-size="14.00" fill="#000000">publish</text>
</g>
<!-- external harddisk -->
<g id="node11" class="node">
<title>external harddisk</title>
<ellipse fill="none" stroke="#000000" cx="710.1751" cy="-128" rx="71.4873" ry="18"/>
<text text-anchor="middle" x="710.1751" y="-124.3" font-family="Times,serif" font-size="14.00" fill="#000000">external harddisk</text>
</g>
<!-- Static Website&#45;&gt;external harddisk -->
<g id="edge12" class="edge">
<title>Static Website&#45;&gt;external harddisk</title>
<path fill="none" stroke="#000000" d="M488.6224,-201.6681C509.841,-194.9552 535.8949,-186.6392 559.1751,-179 592.126,-168.1875 629.0056,-155.7381 658.0691,-145.8462"/>
<polygon fill="#000000" stroke="#000000" points="659.2721,-149.134 667.6088,-142.5957 657.0143,-142.5081 659.2721,-149.134"/>
<text text-anchor="middle" x="621.1751" y="-167.8" font-family="Times,serif" font-size="14.00" fill="#000000">backup</text>
</g>
<!-- R -->
<g id="node12" class="node">
<title>R</title>
<ellipse fill="none" stroke="#000000" cx="167.1751" cy="-41" rx="27" ry="18"/>
<text text-anchor="middle" x="167.1751" y="-37.3" font-family="Times,serif" font-size="14.00" fill="#000000">R</text>
</g>
<!-- Webserver&#45;&gt;R -->
<g id="edge13" class="edge">
<title>Webserver&#45;&gt;R</title>
<path fill="none" stroke="#000000" d="M197.9251,-116.3586C186.3747,-110.8753 174.967,-103.0344 168.1751,-92 164.0901,-85.3633 162.6954,-77.2629 162.6241,-69.4894"/>
<polygon fill="#000000" stroke="#000000" points="166.1324,-69.4462 163.2188,-59.2599 159.1442,-69.0399 166.1324,-69.4462"/>
<text text-anchor="middle" x="226.1751" y="-80.8" font-family="Times,serif" font-size="14.00" fill="#000000">programmatic access</text>
</g>
<!-- Jypiter notebook -->
<g id="node13" class="node">
<title>Jypiter notebook</title>
<ellipse fill="none" stroke="#000000" cx="306.1751" cy="-41" rx="69.5877" ry="18"/>
<text text-anchor="middle" x="306.1751" y="-37.3" font-family="Times,serif" font-size="14.00" fill="#000000">Jypiter notebook</text>
</g>
<!-- Webserver&#45;&gt;Jypiter notebook -->
<g id="edge14" class="edge">
<title>Webserver&#45;&gt;Jypiter notebook</title>
<path fill="none" stroke="#000000" d="M261.7355,-112.5958C269.6895,-106.8814 277.9867,-99.8551 284.1751,-92 289.6055,-85.1072 293.9551,-76.6704 297.3061,-68.6584"/>
<polygon fill="#000000" stroke="#000000" points="300.6093,-69.8192 300.9039,-59.2284 294.0691,-67.3239 300.6093,-69.8192"/>
<text text-anchor="middle" x="351.1751" y="-80.8" font-family="Times,serif" font-size="14.00" fill="#000000">programmatic access</text>
</g>
</g>
</svg>
