<?xml version="1.0" encoding="UTF-8" standalone="no"?>
<!DOCTYPE svg PUBLIC "-//W3C//DTD SVG 1.1//EN"
 "http://www.w3.org/Graphics/SVG/1.1/DTD/svg11.dtd">
<!-- Generated by graphviz version 2.40.1 (20161225.0304)
 -->
<!-- Title: citation_signature Pages: 1 -->
<svg width="654pt" height="220pt"
 viewBox="0.00 0.00 654.00 220.00" xmlns="http://www.w3.org/2000/svg" xmlns:xlink="http://www.w3.org/1999/xlink">
<g id="graph0" class="graph" transform="scale(1 1) rotate(0) translate(4 216)">
<title>citation_signature</title>
<polygon fill="#ffffff" stroke="transparent" points="-4,4 -4,-216 650,-216 650,4 -4,4"/>
<!-- signature1 -->
<g id="node1" class="node">
<title>signature1</title>
<polygon fill="none" stroke="#000000" points="314.5,-125 189.5,-125 189.5,-89 314.5,-89 314.5,-125"/>
<text text-anchor="middle" x="252" y="-103.3" font-family="Times,serif" font-size="14.00" fill="#000000">hash://sha256/d5e...</text>
</g>
<!-- metadataset1 -->
<g id="node2" class="node">
<title>metadataset1</title>
<polygon fill="none" stroke="#000000" points="311.5,-38 208.5,-38 208.5,0 311.5,0 311.5,-38"/>
<text text-anchor="middle" x="260" y="-22.8" font-family="Times,serif" font-size="14.00" fill="#000000">Metadata</text>
<text text-anchor="middle" x="260" y="-7.8" font-family="Times,serif" font-size="14.00" fill="#000000">(or provenance)</text>
</g>
<!-- signature1&#45;&gt;metadataset1 -->
<g id="edge1" class="edge">
<title>signature1&#45;&gt;metadataset1</title>
<path fill="none" stroke="#000000" d="M251.6195,-88.5416C251.6067,-78.833 251.886,-66.7466 253,-56 253.2654,-53.4396 253.6148,-50.7914 254.016,-48.1432"/>
<polygon fill="#000000" stroke="#000000" points="257.4951,-48.5644 255.7525,-38.1139 250.5977,-47.3702 257.4951,-48.5644"/>
<text text-anchor="middle" x="285.5" y="-59.8" font-family="Times,serif" font-size="14.00" fill="#000000">signature of</text>
</g>
<!-- signature2 -->
<g id="node3" class="node">
<title>signature2</title>
<polygon fill="none" stroke="#000000" points="457.5,-125 332.5,-125 332.5,-89 457.5,-89 457.5,-125"/>
<text text-anchor="middle" x="395" y="-103.3" font-family="Times,serif" font-size="14.00" fill="#000000">hash://sha256/a1b...</text>
</g>
<!-- metadataset1&#45;&gt;signature2 -->
<g id="edge6" class="edge">
<title>metadataset1&#45;&gt;signature2</title>
<path fill="none" stroke="#000000" d="M290.1661,-38.1059C299.1432,-43.8288 308.9874,-50.1412 318,-56 331.5443,-64.8047 346.354,-74.5783 359.3351,-83.1944"/>
<polygon fill="#000000" stroke="#000000" points="357.7264,-86.3277 367.992,-88.9484 361.6012,-80.498 357.7264,-86.3277"/>
<text text-anchor="middle" x="362" y="-59.8" font-family="Times,serif" font-size="14.00" fill="#000000">includes</text>
</g>
<!-- dataset1 -->
<g id="node4" class="node">
<title>dataset1</title>
<polygon fill="none" stroke="#000000" points="437.5,-37 380.5,-37 380.5,-1 437.5,-1 437.5,-37"/>
<text text-anchor="middle" x="409" y="-15.3" font-family="Times,serif" font-size="14.00" fill="#000000">Dataset</text>
</g>
<!-- metadataset1&#45;&gt;dataset1 -->
<g id="edge5" class="edge">
<title>metadataset1&#45;&gt;dataset1</title>
<path fill="none" stroke="#000000" d="M311.6948,-19C330.9467,-19 352.4472,-19 370.3316,-19"/>
<polygon fill="#000000" stroke="#000000" points="370.3995,-22.5001 380.3994,-19 370.3994,-15.5001 370.3995,-22.5001"/>
<text text-anchor="middle" x="346" y="-25.8" font-family="Times,serif" font-size="14.00" fill="#000000">describes</text>
</g>
<!-- signature2&#45;&gt;dataset1 -->
<g id="edge2" class="edge">
<title>signature2&#45;&gt;dataset1</title>
<path fill="none" stroke="#000000" d="M397.9008,-88.7663C399.7967,-76.8492 402.3121,-61.0384 404.4688,-47.4817"/>
<polygon fill="#000000" stroke="#000000" points="407.9882,-47.636 406.1029,-37.2103 401.0751,-46.5362 407.9882,-47.636"/>
<text text-anchor="middle" x="434.5" y="-59.8" font-family="Times,serif" font-size="14.00" fill="#000000">signature of</text>
</g>
<!-- citation -->
<g id="node5" class="node">
<title>citation</title>
<polygon fill="none" stroke="#000000" points="646,-212 0,-212 0,-176 646,-176 646,-212"/>
<text text-anchor="middle" x="323" y="-190.3" font-family="Times,serif" font-size="14.00" fill="#000000">Doe, Jane. 2021. The Sky is Blue. Scientific Journal. hash://sha256/a1b... via hash://sha256/d5e... doi:10.123/456 .</text>
</g>
<!-- citation&#45;&gt;signature1 -->
<g id="edge3" class="edge">
<title>citation&#45;&gt;signature1</title>
<path fill="none" stroke="#000000" d="M308.2888,-175.9735C298.1026,-163.4919 284.3906,-146.6899 273.0506,-132.7944"/>
<polygon fill="#000000" stroke="#000000" points="275.7267,-130.5379 266.6924,-125.0034 270.3035,-134.9638 275.7267,-130.5379"/>
<text text-anchor="middle" x="315" y="-146.8" font-family="Times,serif" font-size="14.00" fill="#000000">includes</text>
</g>
<!-- citation&#45;&gt;signature2 -->
<g id="edge4" class="edge">
<title>citation&#45;&gt;signature2</title>
<path fill="none" stroke="#000000" d="M337.9184,-175.9735C348.2481,-163.4919 362.1532,-146.6899 373.6529,-132.7944"/>
<polygon fill="#000000" stroke="#000000" points="376.4213,-134.9388 380.1007,-125.0034 371.0286,-130.4758 376.4213,-134.9388"/>
<text text-anchor="middle" x="386" y="-146.8" font-family="Times,serif" font-size="14.00" fill="#000000">includes</text>
</g>
</g>
</svg>
