<?xml version="1.0" encoding="UTF-8" standalone="no"?>
<!DOCTYPE svg PUBLIC "-//W3C//DTD SVG 1.1//EN"
 "http://www.w3.org/Graphics/SVG/1.1/DTD/svg11.dtd">
<!-- Generated by graphviz version 2.40.1 (20161225.0304)
 -->
<!-- Title: citation_signature Pages: 1 -->
<svg width="454pt" height="55pt"
 viewBox="0.00 0.00 454.00 55.00" xmlns="http://www.w3.org/2000/svg" xmlns:xlink="http://www.w3.org/1999/xlink">
<g id="graph0" class="graph" transform="scale(1 1) rotate(0) translate(4 51)">
<title>citation_signature</title>
<polygon fill="#ffffff" stroke="transparent" points="-4,4 -4,-51 450,-51 450,4 -4,4"/>
<!-- metadataset1 -->
<g id="node1" class="node">
<title>metadataset1</title>
<polygon fill="none" stroke="#000000" points="0,-.5 0,-46.5 125,-46.5 125,-.5 0,-.5"/>
<text text-anchor="middle" x="62.5" y="-31.3" font-family="Times,serif" font-size="14.00" fill="#000000">Metadata v1</text>
<polyline fill="none" stroke="#000000" points="0,-23.5 125,-23.5 "/>
<text text-anchor="middle" x="62.5" y="-8.3" font-family="Times,serif" font-size="14.00" fill="#000000">hash://sha256/a1b...</text>
</g>
<!-- metadataset2 -->
<g id="node2" class="node">
<title>metadataset2</title>
<polygon fill="none" stroke="#000000" points="161,-.5 161,-46.5 286,-46.5 286,-.5 161,-.5"/>
<text text-anchor="middle" x="223.5" y="-31.3" font-family="Times,serif" font-size="14.00" fill="#000000">Metadata v2</text>
<polyline fill="none" stroke="#000000" points="161,-23.5 286,-23.5 "/>
<text text-anchor="middle" x="223.5" y="-8.3" font-family="Times,serif" font-size="14.00" fill="#000000">hash://sha256/b2c...</text>
</g>
<!-- metadataset2&#45;&gt;metadataset1 -->
<g id="edge1" class="edge">
<title>metadataset2&#45;&gt;metadataset1</title>
<path fill="none" stroke="#000000" d="M160.7922,-23.5C152.3519,-23.5 143.6369,-23.5 135.0441,-23.5"/>
<polygon fill="#000000" stroke="#000000" points="135.0367,-20.0001 125.0367,-23.5 135.0366,-27.0001 135.0367,-20.0001"/>
</g>
<!-- metadataset3 -->
<g id="node3" class="node">
<title>metadataset3</title>
<polygon fill="none" stroke="#000000" stroke-dasharray="1,5" points="322,-.5 322,-46.5 446,-46.5 446,-.5 322,-.5"/>
<text text-anchor="middle" x="384" y="-31.3" font-family="Times,serif" font-size="14.00" fill="#000000">Metadata v3</text>
<polyline fill="none" stroke="#000000" stroke-dasharray="1,5" points="322,-23.5 446,-23.5 "/>
<text text-anchor="middle" x="384" y="-8.3" font-family="Times,serif" font-size="14.00" fill="#000000">hash://sha256/d3f...</text>
</g>
<!-- metadataset3&#45;&gt;metadataset2 -->
<g id="edge2" class="edge">
<title>metadataset3&#45;&gt;metadataset2</title>
<path fill="none" stroke="#000000" stroke-dasharray="1,5" d="M321.9465,-23.5C313.514,-23.5 304.7985,-23.5 296.1996,-23.5"/>
<polygon fill="#000000" stroke="#000000" points="296.1829,-20.0001 286.1829,-23.5 296.1828,-27.0001 296.1829,-20.0001"/>
</g>
</g>
</svg>
