<?xml version="1.0" encoding="UTF-8" standalone="no"?>
<!DOCTYPE svg PUBLIC "-//W3C//DTD SVG 1.1//EN"
 "http://www.w3.org/Graphics/SVG/1.1/DTD/svg11.dtd">
<!-- Generated by graphviz version 2.40.1 (20161225.0304)
 -->
<!-- Title: citation_signature Pages: 1 -->
<svg width="580pt" height="147pt"
 viewBox="0.00 0.00 580.00 146.87" xmlns="http://www.w3.org/2000/svg" xmlns:xlink="http://www.w3.org/1999/xlink">
<g id="graph0" class="graph" transform="scale(1 1) rotate(0) translate(4 142.8701)">
<title>citation_signature</title>
<polygon fill="#ffffff" stroke="transparent" points="-4,4 -4,-142.8701 576,-142.8701 576,4 -4,4"/>
<!-- Preston -->
<g id="node1" class="node">
<title>Preston</title>
<ellipse fill="none" stroke="#000000" cx="84.5" cy="-112" rx="69.0935" ry="26.7407"/>
<text text-anchor="middle" x="84.5" y="-115.8" font-family="Times,serif" font-size="14.00" fill="#000000">Preston</text>
<text text-anchor="middle" x="84.5" y="-100.8" font-family="Times,serif" font-size="14.00" fill="#000000">content tracker</text>
</g>
<!-- location1 -->
<g id="node2" class="node">
<title>location1</title>
<polygon fill="none" stroke="#000000" points="169,-50 0,-50 0,-14 169,-14 169,-50"/>
<text text-anchor="middle" x="84.5" y="-28.3" font-family="Times,serif" font-size="14.00" fill="#000000">https://example.org/data.zip</text>
</g>
<!-- Preston&#45;&gt;location1 -->
<g id="edge2" class="edge">
<title>Preston&#45;&gt;location1</title>
<path fill="none" stroke="#000000" d="M84.5,-85.1108C84.5,-77.113 84.5,-68.329 84.5,-60.2474"/>
<polygon fill="#000000" stroke="#000000" points="88.0001,-60.1532 84.5,-50.1532 81.0001,-60.1533 88.0001,-60.1532"/>
<text text-anchor="middle" x="74" y="-63.865" font-family="Times,serif" font-size="14.00" fill="#000000">track</text>
</g>
<!-- metadataset1 -->
<g id="node3" class="node">
<title>metadataset1</title>
<polygon fill="none" stroke="#000000" points="360,-108 257,-108 257,-70 360,-70 360,-108"/>
<text text-anchor="middle" x="308.5" y="-92.8" font-family="Times,serif" font-size="14.00" fill="#000000">Metadata</text>
<text text-anchor="middle" x="308.5" y="-77.8" font-family="Times,serif" font-size="14.00" fill="#000000">(or provenance)</text>
</g>
<!-- Preston&#45;&gt;metadataset1 -->
<g id="edge1" class="edge">
<title>Preston&#45;&gt;metadataset1</title>
<path fill="none" stroke="#000000" d="M153.9604,-111.5247C180.6464,-110.6438 211.3325,-108.7798 239,-105 241.5225,-104.6554 244.0882,-104.2629 246.6739,-103.8325"/>
<polygon fill="#000000" stroke="#000000" points="247.4867,-107.2421 256.6967,-102.0051 246.2311,-100.3556 247.4867,-107.2421"/>
<text text-anchor="middle" x="213" y="-112.8" font-family="Times,serif" font-size="14.00" fill="#000000">generates</text>
</g>
<!-- metadataset1&#45;&gt;Preston -->
<g id="edge7" class="edge">
<title>metadataset1&#45;&gt;Preston</title>
<path fill="none" stroke="#000000" d="M256.892,-86.5245C250.8614,-86.3086 244.7957,-86.125 239,-86 215.8943,-85.5015 209.9331,-83.1368 187,-86 174.6379,-87.5434 161.6274,-90.0955 149.1809,-93.013"/>
<polygon fill="#000000" stroke="#000000" points="148.2254,-89.6435 139.3431,-95.4189 149.8883,-96.4431 148.2254,-89.6435"/>
<text text-anchor="middle" x="213" y="-89.8" font-family="Times,serif" font-size="14.00" fill="#000000">describes</text>
</g>
<!-- metadataset1&#45;&gt;location1 -->
<g id="edge6" class="edge">
<title>metadataset1&#45;&gt;location1</title>
<path fill="none" stroke="#000000" d="M256.7249,-70.3467C250.7801,-68.4358 244.7799,-66.6088 239,-65 219.7862,-59.6521 199.0224,-54.6798 179.1393,-50.3012"/>
<polygon fill="#000000" stroke="#000000" points="179.6634,-46.8336 169.1487,-48.1338 178.1793,-53.6744 179.6634,-46.8336"/>
<text text-anchor="middle" x="213" y="-68.8" font-family="Times,serif" font-size="14.00" fill="#000000">describes</text>
</g>
<!-- signature2 -->
<g id="node4" class="node">
<title>signature2</title>
<polygon fill="none" stroke="#000000" points="572,-108 447,-108 447,-72 572,-72 572,-108"/>
<text text-anchor="middle" x="509.5" y="-86.3" font-family="Times,serif" font-size="14.00" fill="#000000">hash://sha256/a1b...</text>
</g>
<!-- metadataset1&#45;&gt;signature2 -->
<g id="edge5" class="edge">
<title>metadataset1&#45;&gt;signature2</title>
<path fill="none" stroke="#000000" d="M360.0015,-89.2562C383.2078,-89.3717 411.0288,-89.5101 436.3444,-89.636"/>
<polygon fill="#000000" stroke="#000000" points="436.6296,-93.1374 446.6469,-89.6873 436.6645,-86.1375 436.6296,-93.1374"/>
<text text-anchor="middle" x="403.5" y="-92.8" font-family="Times,serif" font-size="14.00" fill="#000000">describes</text>
</g>
<!-- dataset1 -->
<g id="node5" class="node">
<title>dataset1</title>
<polygon fill="none" stroke="#000000" points="538,-36 481,-36 481,0 538,0 538,-36"/>
<text text-anchor="middle" x="509.5" y="-14.3" font-family="Times,serif" font-size="14.00" fill="#000000">Dataset</text>
</g>
<!-- signature2&#45;&gt;dataset1 -->
<g id="edge3" class="edge">
<title>signature2&#45;&gt;dataset1</title>
<path fill="none" stroke="#000000" d="M509.5,-71.5867C509.5,-63.9407 509.5,-54.8916 509.5,-46.4274"/>
<polygon fill="#000000" stroke="#000000" points="513.0001,-46.1686 509.5,-36.1686 506.0001,-46.1687 513.0001,-46.1686"/>
<text text-anchor="middle" x="499" y="-50.3" font-family="Times,serif" font-size="14.00" fill="#000000">derived from</text>
</g>
<!-- dataset1&#45;&gt;location1 -->
<g id="edge4" class="edge">
<title>dataset1&#45;&gt;location1</title>
<path fill="none" stroke="#000000" d="M480.7386,-18.9474C419.9134,-20.9511 275.9045,-25.6949 179.3012,-28.8771"/>
<polygon fill="#000000" stroke="#000000" points="179.1082,-25.3815 169.2289,-29.2089 179.3388,-32.3777 179.1082,-25.3815"/>
<text text-anchor="middle" x="308.5" y="-30.8" font-family="Times,serif" font-size="14.00" fill="#000000">accessed at</text>
</g>
</g>
</svg>
