<?xml version="1.0" encoding="UTF-8" standalone="no"?><!DOCTYPE svg PUBLIC "-//W3C//DTD SVG 1.1//EN" "http://www.w3.org/Graphics/SVG/1.1/DTD/svg11.dtd"><!-- Generated by graphviz version 2.40.1 (20161225.0304)
 --><!-- Title: G Pages: 1 --><svg xmlns="http://www.w3.org/2000/svg" xmlns:xlink="http://www.w3.org/1999/xlink" width="553pt" height="263pt" viewBox="0.00 0.00 553.23 263.00">
<g id="graph0" class="graph" transform="scale(1 1) rotate(0) translate(4 259)">
<title>G</title>
<polygon fill="#ffffff" stroke="transparent" points="-4,4 -4,-259 549.2306,-259 549.2306,4 -4,4"/>
<g id="clust1" class="cluster">
<title>cluster_0</title>
<polygon fill="#d3d3d3" stroke="#d3d3d3" points="8,-62 8,-193 149.2322,-193 149.2322,-62 8,-62"/>
<text text-anchor="middle" x="78.6161" y="-176.4" font-family="Times,serif" font-size="14.00" fill="#000000">Inputs</text>
</g>
<g id="clust2" class="cluster">
<title>cluster_1</title>
</g>
<g id="clust3" class="cluster">
<title>cluster_2</title>
<polygon fill="#d3d3d3" stroke="#d3d3d3" points="410.7698,-8 410.7698,-247 537.2306,-247 537.2306,-8 410.7698,-8"/>
<text text-anchor="middle" x="474.0002" y="-230.4" font-family="Times,serif" font-size="14.00" fill="#000000">Outputs</text>
</g>
<!-- url -->
<g id="node1" class="node">
<title>url</title>
<polygon fill="#ffffff" stroke="#ffffff" points="105.6161,-160 51.6161,-160 51.6161,-124 105.6161,-124 105.6161,-160"/>
<text text-anchor="middle" x="78.6161" y="-137.8" font-family="Times,serif" font-size="14.00" fill="#000000">URL</text>
</g>
<!-- dereference -->
<g id="node3" class="node">
<title>dereference</title>
<ellipse fill="none" stroke="#000000" cx="280.001" cy="-196" rx="58.4027" ry="18"/>
<text text-anchor="middle" x="280.001" y="-191.8" font-family="Times,serif" font-size="14.00" fill="#000000">Dereference</text>
</g>
<!-- url&#45;&gt;dereference -->
<g id="edge1" class="edge">
<title>url-&gt;dereference</title>
<path fill="none" stroke="#000000" d="M105.8746,-150.5132C123.8113,-156.0182 147.8411,-163.2101 169.2322,-169 186.7211,-173.7337 205.865,-178.5342 223.2445,-182.7485"/>
<polygon fill="#000000" stroke="#000000" points="222.706,-186.2188 233.2475,-185.1571 224.3447,-179.4133 222.706,-186.2188"/>
</g>
<!-- generateProvenance -->
<g id="node4" class="node">
<title>generateProvenance</title>
<ellipse fill="none" stroke="#000000" cx="280.001" cy="-88" rx="84.5275" ry="18"/>
<text text-anchor="middle" x="280.001" y="-83.8" font-family="Times,serif" font-size="14.00" fill="#000000">Describe processes</text>
</g>
<!-- url&#45;&gt;generateProvenance -->
<g id="edge5" class="edge">
<title>url-&gt;generateProvenance</title>
<path fill="none" stroke="#000000" d="M105.8746,-133.4868C123.8113,-127.9818 147.8411,-120.7899 169.2322,-115 183.3589,-111.1763 198.5653,-107.3091 213.0495,-103.7425"/>
<polygon fill="#000000" stroke="#000000" points="214.0563,-107.0995 222.9395,-101.3255 212.3944,-100.2996 214.0563,-107.0995"/>
</g>
<!-- previousProv -->
<g id="node2" class="node">
<title>previousProv</title>
<polygon fill="#ffffff" stroke="#ffffff" points="141.3485,-106 15.8837,-106 15.8837,-70 141.3485,-70 141.3485,-106"/>
<text text-anchor="middle" x="78.6161" y="-83.8" font-family="Times,serif" font-size="14.00" fill="#000000">Known provenance</text>
</g>
<!-- previousProv&#45;&gt;generateProvenance -->
<g id="edge6" class="edge">
<title>previousProv-&gt;generateProvenance</title>
<path fill="none" stroke="#000000" d="M141.5072,-88C155.2911,-88 170.1807,-88 184.91,-88"/>
<polygon fill="#000000" stroke="#000000" points="185.066,-91.5001 195.0659,-88 185.0659,-84.5001 185.066,-91.5001"/>
</g>
<!-- content -->
<g id="node7" class="node">
<title>content</title>
<polygon fill="#ffffff" stroke="#ffffff" points="504.3335,-214 443.6669,-214 443.6669,-178 504.3335,-178 504.3335,-214"/>
<text text-anchor="middle" x="474.0002" y="-191.8" font-family="Times,serif" font-size="14.00" fill="#000000">Content</text>
</g>
<!-- dereference&#45;&gt;content -->
<g id="edge2" class="edge">
<title>dereference-&gt;content</title>
<path fill="none" stroke="#000000" d="M338.2071,-196C368.9854,-196 406.0026,-196 433.6091,-196"/>
<polygon fill="#000000" stroke="#000000" points="433.6962,-199.5001 443.6961,-196 433.6961,-192.5001 433.6962,-199.5001"/>
</g>
<!-- newProv -->
<g id="node9" class="node">
<title>newProv</title>
<polygon fill="#ffffff" stroke="#ffffff" points="514.8023,-106 433.198,-106 433.198,-70 514.8023,-70 514.8023,-106"/>
<text text-anchor="middle" x="474.0002" y="-83.8" font-family="Times,serif" font-size="14.00" fill="#000000">Provenance</text>
</g>
<!-- generateProvenance&#45;&gt;newProv -->
<g id="edge8" class="edge">
<title>generateProvenance-&gt;newProv</title>
<path fill="none" stroke="#000000" d="M364.8096,-88C384.6682,-88 405.2195,-88 423.0625,-88"/>
<polygon fill="#000000" stroke="#000000" points="423.2296,-91.5001 433.2295,-88 423.2295,-84.5001 423.2296,-91.5001"/>
</g>
<!-- computeContentHash -->
<g id="node5" class="node">
<title>computeContentHash</title>
<ellipse fill="none" stroke="#000000" cx="280.001" cy="-142" rx="102.5381" ry="18"/>
<text text-anchor="middle" x="280.001" y="-137.8" font-family="Times,serif" font-size="14.00" fill="#000000">Compute SHA256 hash</text>
</g>
<!-- contentHash -->
<g id="node8" class="node">
<title>contentHash</title>
<polygon fill="#ffffff" stroke="#ffffff" points="518.9931,-160 429.0072,-160 429.0072,-124 518.9931,-124 518.9931,-160"/>
<text text-anchor="middle" x="474.0002" y="-137.8" font-family="Times,serif" font-size="14.00" fill="#000000">Content hash</text>
</g>
<!-- computeContentHash&#45;&gt;contentHash -->
<g id="edge4" class="edge">
<title>computeContentHash-&gt;contentHash</title>
<path fill="none" stroke="#000000" d="M382.965,-142C395.3241,-142 407.5535,-142 418.8468,-142"/>
<polygon fill="#000000" stroke="#000000" points="418.9318,-145.5001 428.9318,-142 418.9317,-138.5001 418.9318,-145.5001"/>
</g>
<!-- computeProvHash -->
<g id="node6" class="node">
<title>computeProvHash</title>
<ellipse fill="none" stroke="#000000" cx="280.001" cy="-34" rx="102.5381" ry="18"/>
<text text-anchor="middle" x="280.001" y="-29.8" font-family="Times,serif" font-size="14.00" fill="#000000">Compute SHA256 hash</text>
</g>
<!-- newProvHash -->
<g id="node10" class="node">
<title>newProvHash</title>
<polygon fill="#ffffff" stroke="#ffffff" points="529.4619,-52 418.5384,-52 418.5384,-16 529.4619,-16 529.4619,-52"/>
<text text-anchor="middle" x="474.0002" y="-29.8" font-family="Times,serif" font-size="14.00" fill="#000000">Provenance hash</text>
</g>
<!-- computeProvHash&#45;&gt;newProvHash -->
<g id="edge10" class="edge">
<title>computeProvHash-&gt;newProvHash</title>
<path fill="none" stroke="#000000" d="M382.965,-34C391.5095,-34 399.9921,-34 408.1461,-34"/>
<polygon fill="#000000" stroke="#000000" points="408.2789,-37.5001 418.2789,-34 408.2788,-30.5001 408.2789,-37.5001"/>
</g>
<!-- content&#45;&gt;computeContentHash -->
<g id="edge3" class="edge">
<title>content-&gt;computeContentHash</title>
<path fill="none" stroke="#000000" d="M443.7275,-185.5783C428.0144,-180.3221 408.4533,-174.0159 390.7698,-169 378.3267,-165.4705 365.019,-161.9837 352.0987,-158.7478"/>
<polygon fill="#000000" stroke="#000000" points="352.8628,-155.3314 342.3147,-156.3256 351.1806,-162.1262 352.8628,-155.3314"/>
</g>
<!-- contentHash&#45;&gt;generateProvenance -->
<g id="edge7" class="edge">
<title>contentHash-&gt;generateProvenance</title>
<path fill="none" stroke="#000000" d="M428.8315,-126.6696C416.5409,-122.6839 403.1921,-118.5236 390.7698,-115 376.8449,-111.0502 361.8373,-107.1539 347.5016,-103.6028"/>
<polygon fill="#000000" stroke="#000000" points="348.2514,-100.1831 337.7057,-101.2031 346.5857,-106.982 348.2514,-100.1831"/>
</g>
<!-- newProv&#45;&gt;computeProvHash -->
<g id="edge9" class="edge">
<title>newProv-&gt;computeProvHash</title>
<path fill="none" stroke="#000000" d="M433.1222,-74.0678C419.6946,-69.6716 404.6535,-64.9381 390.7698,-61 378.3267,-57.4705 365.019,-53.9837 352.0987,-50.7478"/>
<polygon fill="#000000" stroke="#000000" points="352.8628,-47.3314 342.3147,-48.3256 351.1806,-54.1262 352.8628,-47.3314"/>
</g>
</g>
</svg>