<?xml version="1.0" encoding="UTF-8" standalone="no"?><!DOCTYPE svg PUBLIC "-//W3C//DTD SVG 1.1//EN" "http://www.w3.org/Graphics/SVG/1.1/DTD/svg11.dtd"><!-- Generated by graphviz version 2.40.1 (20161225.0304)
 --><!-- Title: G Pages: 1 --><svg xmlns="http://www.w3.org/2000/svg" xmlns:xlink="http://www.w3.org/1999/xlink" width="538pt" height="263pt" viewBox="0.00 0.00 538.46 263.00">
<g id="graph0" class="graph" transform="scale(1 1) rotate(0) translate(4 259)">
<title>G</title>
<polygon fill="#ffffff" stroke="transparent" points="-4,4 -4,-259 534.4592,-259 534.4592,4 -4,4"/>
<g id="clust1" class="cluster">
<title>cluster_0</title>
<polygon fill="#d3d3d3" stroke="#d3d3d3" points="8,-62 8,-193 134.4608,-193 134.4608,-62 8,-62"/>
<text text-anchor="middle" x="71.2304" y="-176.4" font-family="Times,serif" font-size="14.00" fill="#000000">Inputs</text>
</g>
<g id="clust2" class="cluster">
<title>cluster_1</title>
<polygon fill="none" stroke="#000000" points="154.4608,-8 154.4608,-247 375.9984,-247 375.9984,-8 154.4608,-8"/>
<text text-anchor="middle" x="265.2296" y="-230.4" font-family="Times,serif" font-size="14.00" fill="#000000">Preston</text>
</g>
<g id="clust3" class="cluster">
<title>cluster_2</title>
<polygon fill="#d3d3d3" stroke="#d3d3d3" points="395.9984,-8 395.9984,-247 522.4592,-247 522.4592,-8 395.9984,-8"/>
<text text-anchor="middle" x="459.2288" y="-230.4" font-family="Times,serif" font-size="14.00" fill="#000000">Outputs</text>
</g>
<!-- url -->
<g id="node1" class="node">
<title>url</title>
<polygon fill="#ffffff" stroke="#ffffff" points="98.2304,-160 44.2304,-160 44.2304,-124 98.2304,-124 98.2304,-160"/>
<text text-anchor="middle" x="71.2304" y="-137.8" font-family="Times,serif" font-size="14.00" fill="#000000">URL</text>
</g>
<!-- dereference -->
<g id="node3" class="node">
<title>dereference</title>
<ellipse fill="none" stroke="#000000" cx="265.2296" cy="-196" rx="58.4027" ry="18"/>
<text text-anchor="middle" x="265.2296" y="-191.8" font-family="Times,serif" font-size="14.00" fill="#000000">Dereference</text>
</g>
<!-- url&#45;&gt;dereference -->
<g id="edge1" class="edge">
<title>url-&gt;dereference</title>
<path fill="none" stroke="#000000" d="M98.4385,-151.3936C114.6214,-156.8384 135.6081,-163.6525 154.4608,-169 171.8118,-173.9216 190.844,-178.7602 208.1626,-182.9514"/>
<polygon fill="#000000" stroke="#000000" points="207.5957,-186.4145 218.1359,-185.34 209.2261,-179.607 207.5957,-186.4145"/>
</g>
<!-- generateProvenance -->
<g id="node4" class="node">
<title>generateProvenance</title>
<ellipse fill="none" stroke="#000000" cx="265.2296" cy="-88" rx="84.5275" ry="18"/>
<text text-anchor="middle" x="265.2296" y="-83.8" font-family="Times,serif" font-size="14.00" fill="#000000">Describe processes</text>
</g>
<!-- url&#45;&gt;generateProvenance -->
<g id="edge5" class="edge">
<title>url-&gt;generateProvenance</title>
<path fill="none" stroke="#000000" d="M98.4385,-132.6064C114.6214,-127.1616 135.6081,-120.3475 154.4608,-115 168.3856,-111.0502 183.3933,-107.1539 197.729,-103.6028"/>
<polygon fill="#000000" stroke="#000000" points="198.6448,-106.982 207.5248,-101.2031 196.9792,-100.1831 198.6448,-106.982"/>
</g>
<!-- previousProvHash -->
<g id="node2" class="node">
<title>previousProvHash</title>
<polygon fill="#ffffff" stroke="#ffffff" points="126.6922,-106 15.7686,-106 15.7686,-70 126.6922,-70 126.6922,-106"/>
<text text-anchor="middle" x="71.2304" y="-83.8" font-family="Times,serif" font-size="14.00" fill="#000000">Provenance hash</text>
</g>
<!-- previousProvHash&#45;&gt;generateProvenance -->
<g id="edge6" class="edge">
<title>previousProvHash-&gt;generateProvenance</title>
<path fill="none" stroke="#000000" d="M126.5632,-88C140.1214,-88 155.0206,-88 169.8686,-88"/>
<polygon fill="#000000" stroke="#000000" points="170.1228,-91.5001 180.1227,-88 170.1227,-84.5001 170.1228,-91.5001"/>
</g>
<!-- content -->
<g id="node7" class="node">
<title>content</title>
<polygon fill="#ffffff" stroke="#c0c0c0" points="489.5621,-214 432.8955,-214 428.8955,-210 428.8955,-178 485.5621,-178 489.5621,-182 489.5621,-214"/>
<polyline fill="none" stroke="#c0c0c0" points="485.5621,-210 428.8955,-210 "/>
<polyline fill="none" stroke="#c0c0c0" points="485.5621,-210 485.5621,-178 "/>
<polyline fill="none" stroke="#c0c0c0" points="485.5621,-210 489.5621,-214 "/>
<text text-anchor="middle" x="459.2288" y="-191.8" font-family="Times,serif" font-size="14.00" fill="#000000">Content</text>
</g>
<!-- dereference&#45;&gt;content -->
<g id="edge2" class="edge">
<title>dereference-&gt;content</title>
<path fill="none" stroke="#000000" d="M323.4357,-196C354.214,-196 391.2312,-196 418.8377,-196"/>
<polygon fill="#000000" stroke="#000000" points="418.9248,-199.5001 428.9247,-196 418.9247,-192.5001 418.9248,-199.5001"/>
</g>
<!-- newProv -->
<g id="node9" class="node">
<title>newProv</title>
<polygon fill="#ffffff" stroke="#c0c0c0" points="500.0309,-106 422.4266,-106 418.4266,-102 418.4266,-70 496.0309,-70 500.0309,-74 500.0309,-106"/>
<polyline fill="none" stroke="#c0c0c0" points="496.0309,-102 418.4266,-102 "/>
<polyline fill="none" stroke="#c0c0c0" points="496.0309,-102 496.0309,-70 "/>
<polyline fill="none" stroke="#c0c0c0" points="496.0309,-102 500.0309,-106 "/>
<text text-anchor="middle" x="459.2288" y="-83.8" font-family="Times,serif" font-size="14.00" fill="#000000">Provenance</text>
</g>
<!-- generateProvenance&#45;&gt;newProv -->
<g id="edge8" class="edge">
<title>generateProvenance-&gt;newProv</title>
<path fill="none" stroke="#000000" d="M350.0382,-88C369.8968,-88 390.4481,-88 408.2911,-88"/>
<polygon fill="#000000" stroke="#000000" points="408.4582,-91.5001 418.4581,-88 408.4581,-84.5001 408.4582,-91.5001"/>
</g>
<!-- computeContentHash -->
<g id="node5" class="node">
<title>computeContentHash</title>
<ellipse fill="none" stroke="#000000" cx="265.2296" cy="-142" rx="102.5381" ry="18"/>
<text text-anchor="middle" x="265.2296" y="-137.8" font-family="Times,serif" font-size="14.00" fill="#000000">Compute SHA256 hash</text>
</g>
<!-- contentHash -->
<g id="node8" class="node">
<title>contentHash</title>
<polygon fill="#ffffff" stroke="#ffffff" points="504.2217,-160 414.2358,-160 414.2358,-124 504.2217,-124 504.2217,-160"/>
<text text-anchor="middle" x="459.2288" y="-137.8" font-family="Times,serif" font-size="14.00" fill="#000000">Content hash</text>
</g>
<!-- computeContentHash&#45;&gt;contentHash -->
<g id="edge4" class="edge">
<title>computeContentHash-&gt;contentHash</title>
<path fill="none" stroke="#000000" d="M368.1936,-142C380.5527,-142 392.7821,-142 404.0754,-142"/>
<polygon fill="#000000" stroke="#000000" points="404.1604,-145.5001 414.1604,-142 404.1603,-138.5001 404.1604,-145.5001"/>
</g>
<!-- computeProvHash -->
<g id="node6" class="node">
<title>computeProvHash</title>
<ellipse fill="none" stroke="#000000" cx="265.2296" cy="-34" rx="102.5381" ry="18"/>
<text text-anchor="middle" x="265.2296" y="-29.8" font-family="Times,serif" font-size="14.00" fill="#000000">Compute SHA256 hash</text>
</g>
<!-- newProvHash -->
<g id="node10" class="node">
<title>newProvHash</title>
<polygon fill="#ffffff" stroke="#ffffff" points="514.6905,-52 403.767,-52 403.767,-16 514.6905,-16 514.6905,-52"/>
<text text-anchor="middle" x="459.2288" y="-29.8" font-family="Times,serif" font-size="14.00" fill="#000000">Provenance hash</text>
</g>
<!-- computeProvHash&#45;&gt;newProvHash -->
<g id="edge10" class="edge">
<title>computeProvHash-&gt;newProvHash</title>
<path fill="none" stroke="#000000" d="M368.1936,-34C376.7381,-34 385.2207,-34 393.3747,-34"/>
<polygon fill="#000000" stroke="#000000" points="393.5075,-37.5001 403.5075,-34 393.5074,-30.5001 393.5075,-37.5001"/>
</g>
<!-- content&#45;&gt;computeContentHash -->
<g id="edge3" class="edge">
<title>content-&gt;computeContentHash</title>
<path fill="none" stroke="#000000" d="M428.9561,-185.5783C413.243,-180.3221 393.6819,-174.0159 375.9984,-169 363.5553,-165.4705 350.2476,-161.9837 337.3273,-158.7478"/>
<polygon fill="#000000" stroke="#000000" points="338.0914,-155.3314 327.5433,-156.3256 336.4092,-162.1262 338.0914,-155.3314"/>
</g>
<!-- contentHash&#45;&gt;generateProvenance -->
<g id="edge7" class="edge">
<title>contentHash-&gt;generateProvenance</title>
<path fill="none" stroke="#000000" d="M414.0601,-126.6696C401.7695,-122.6839 388.4207,-118.5236 375.9984,-115 362.0735,-111.0502 347.0659,-107.1539 332.7302,-103.6028"/>
<polygon fill="#000000" stroke="#000000" points="333.48,-100.1831 322.9343,-101.2031 331.8143,-106.982 333.48,-100.1831"/>
</g>
<!-- newProv&#45;&gt;computeProvHash -->
<g id="edge9" class="edge">
<title>newProv-&gt;computeProvHash</title>
<path fill="none" stroke="#000000" d="M418.3508,-74.0678C404.9232,-69.6716 389.8821,-64.9381 375.9984,-61 363.5553,-57.4705 350.2476,-53.9837 337.3273,-50.7478"/>
<polygon fill="#000000" stroke="#000000" points="338.0914,-47.3314 327.5433,-48.3256 336.4092,-54.1262 338.0914,-47.3314"/>
</g>
</g>
</svg>